HIERARCHY
ROOT Hips
{
 OFFSET 0.000000 0.000000 0.000000
 CHANNELS 6 Xposition Yposition Zposition Yrotation Xrotation Zrotation
 JOINT Chest
 {
  OFFSET 0.000000 13.173100 -0.061900
  CHANNELS 3 Yrotation Xrotation Zrotation
  JOINT Chest2
  {
   OFFSET 0.000000 8.040800 0.126200
   CHANNELS 3 Yrotation Xrotation Zrotation
   JOINT Chest3
   {
    OFFSET 0.000000 7.994400 0.000000
    CHANNELS 3 Yrotation Xrotation Zrotation
    JOINT Chest4
    {
     OFFSET 0.000000 7.986200 0.000000
     CHANNELS 3 Yrotation Xrotation Zrotation
     JOINT Neck
     {
      OFFSET 0.000000 12.259400 0.000000
      CHANNELS 3 Yrotation Xrotation Zrotation
      JOINT Head
      {
       OFFSET 0.000000 7.518700 0.267100
       CHANNELS 3 Yrotation Xrotation Zrotation
       End Site
       {
        OFFSET 0.000000 13.617700 0.141000
       }
      }
     }
     JOINT RightCollar
     {
      OFFSET -2.983800 8.314300 0.000000
      CHANNELS 3 Yrotation Xrotation Zrotation
      JOINT RightShoulder
      {
       OFFSET -16.133400 0.000000 0.000000
       CHANNELS 3 Yrotation Xrotation Zrotation
       JOINT RightElbow
       {
        OFFSET 0.000000 -29.822100 0.000000
        CHANNELS 3 Yrotation Xrotation Zrotation
        JOINT RightWrist
        {
         OFFSET 0.000000 -24.437700 0.010900
         CHANNELS 3 Yrotation Xrotation Zrotation
         End Site
         {
          OFFSET 0.000000 -18.312300 0.000000
         }
        }
       }
      }
     }
     JOINT LeftCollar
     {
      OFFSET 2.983800 8.314300 0.000000
      CHANNELS 3 Yrotation Xrotation Zrotation
      JOINT LeftShoulder
      {
       OFFSET 16.133400 0.000000 0.000000
       CHANNELS 3 Yrotation Xrotation Zrotation
       JOINT LeftElbow
       {
        OFFSET 0.000000 -29.822100 0.000000
        CHANNELS 3 Yrotation Xrotation Zrotation
        JOINT LeftWrist
        {
         OFFSET 0.000000 -24.437700 0.010900
         CHANNELS 3 Yrotation Xrotation Zrotation
         End Site
         {
          OFFSET 0.000000 -18.312300 0.000000
         }
        }
       }
      }
     }
    }
   }
  }
 }
 JOINT RightHip
 {
  OFFSET -11.206700 0.306200 0.030900
  CHANNELS 3 Yrotation Xrotation Zrotation
  JOINT RightKnee
  {
   OFFSET 0.000000 -57.334900 0.009400
   CHANNELS 3 Yrotation Xrotation Zrotation
   JOINT RightAnkle
   {
    OFFSET 0.000000 -43.376200 0.036600
    CHANNELS 3 Yrotation Xrotation Zrotation
    JOINT RightToe
    {
     OFFSET 0.000000 -10.035500 18.363100
     CHANNELS 3 Yrotation Xrotation Zrotation
     End Site
     {
      OFFSET 0.000000 -1.618500 7.239000
     }
    }
   }
  }
 }
 JOINT LeftHip
 {
  OFFSET 11.206700 0.306200 0.030900
  CHANNELS 3 Yrotation Xrotation Zrotation
  JOINT LeftKnee
  {
   OFFSET 0.000000 -57.334900 0.009400
   CHANNELS 3 Yrotation Xrotation Zrotation
   JOINT LeftAnkle
   {
    OFFSET 0.000000 -43.376200 0.036600
    CHANNELS 3 Yrotation Xrotation Zrotation
    JOINT LeftToe
    {
     OFFSET 0.000000 -10.035500 18.363100
     CHANNELS 3 Yrotation Xrotation Zrotation
     End Site
     {
      OFFSET 0.000000 -1.618500 7.239000
     }
    }
   }
  }
 }
}
MOTION
Frames: 8
Frame Time: 0.008333
0.000000 110.232800 0.000000 0.000000 -5.767877 0.000000 0.000000 11.653817 0.000000 0.000000 -5.885947 0.000000 0.000000 -0.000000 0.000000 0.000000 -0.000000 0.000000 0.000000 12.528835 0.000000 0.000000 0.711642 0.000000 0.000000 -0.000000 0.000000 0.000000 0.000000 -90.000000 0.000000 -2.309062 0.000000 0.000000 2.309062 0.000000 0.000000 -0.000000 0.000000 0.000000 -0.000000 90.000000 0.000000 -2.309062 0.000000 0.000000 2.309062 0.000000 0.000000 8.520406 0.000000 0.000000 1.905762 0.000000 -0.000000 -4.658285 0.000000 0.000000 -0.000000 0.000000 0.000000 8.520406 0.000000 0.000000 1.905762 0.000000 -0.000000 -4.658285 0.000000 0.000000 -0.000000 0.000000
-95.192961 64.416825 94.188327 173.647477 -39.402331 -2.837328 1.974685 21.812388 1.331140 0.255085 3.010681 0.284683 0.433870 4.891658 0.477679 1.857113 18.532459 2.026354 -1.623067 17.098809 -0.479323 -2.871153 -4.033581 -0.336675 -5.328075 -0.405125 -2.976322 -2.784108 -1.530672 3.335328 -151.304903 -83.876805 163.149355 0.163318 -2.576184 -2.002867 -5.377645 2.171570 -0.213848 10.835421 -8.927283 3.161652 -168.075735 -62.911126 160.587281 -4.417713 -30.611294 23.893344 -4.471430 -41.723073 3.541534 -139.152149 87.740653 -135.145817 -1.632837 -9.195317 -2.708835 0.047680 -0.215886 0.016201 -0.715667 -38.369357 4.812564 70.924984 83.647668 60.421046 -6.011184 -13.394984 9.498254 0.390265 1.162915 0.217751
-95.193311 64.414081 94.189676 173.651957 -39.390430 -2.830605 1.974837 21.801102 1.329247 0.255699 3.010082 0.285159 0.435138 4.894021 0.478926 1.881331 18.529105 2.043201 -1.793417 17.115832 -0.494405 -3.157695 -4.004048 -0.304167 -5.341835 -0.320266 -2.981556 -2.833724 -1.524963 3.357611 -151.532840 -83.815858 163.358706 0.148478 -2.559636 -2.036398 -5.348400 2.201764 -0.229280 11.076880 -9.057120 3.129963 -168.078784 -61.923582 160.507034 -4.352754 -30.809049 23.960848 -4.490883 -41.738973 3.537935 -139.471394 87.745758 -135.471874 -1.636149 -9.191989 -2.719228 0.049003 -0.220347 0.018352 -0.703932 -38.380699 4.802886 70.874928 83.648640 60.368739 -6.016755 -13.390918 9.502314 0.391716 1.163055 0.221678
-95.192673 64.412100 94.190165 173.654863 -39.382229 -2.825857 1.982430 21.800317 1.336013 0.256544 3.008980 0.285921 0.425022 4.888939 0.472092 1.911521 18.533556 2.064319 -1.969639 17.138301 -0.511409 -3.465801 -3.959149 -0.274312 -5.347675 -0.244112 -2.990708 -2.874181 -1.510705 3.389053 -152.053499 -83.748045 163.881798 0.098024 -2.518437 -2.118705 -5.334079 2.214551 -0.242104 11.284886 -9.179006 3.101932 -167.978034 -60.937813 160.385769 -4.308663 -31.027830 24.122119 -4.497586 -41.748517 3.529511 -139.757369 87.749521 -135.755421 -1.638661 -9.196272 -2.724484 0.048699 -0.218978 0.014781 -0.696310 -38.387569 4.797058 70.849907 83.647273 60.341855 -6.022362 -13.390064 9.505546 0.398298 1.163264 0.222990
-95.193950 64.409179 94.191470 173.664995 -39.365739 -2.817687 2.005432 21.806664 1.358301 0.238729 2.996480 0.276375 0.425794 4.887584 0.473306 1.910123 18.530901 2.064919 -2.140201 17.172385 -0.528926 -3.791171 -3.895615 -0.250818 -5.339197 -0.168443 -2.998268 -2.905246 -1.492139 3.427094 -151.452904 -83.717952 163.185599 0.143641 -2.537037 -2.113370 -5.340766 2.213711 -0.249877 11.458887 -9.285315 3.076732 -167.776474 -59.950054 160.235690 -4.294334 -31.257856 24.364711 -4.499007 -41.768584 3.511405 -139.929090 87.746209 -135.925463 -1.641504 -9.201473 -2.724694 0.051426 -0.218107 0.013838 -0.686117 -38.402659 4.782394 70.806620 83.644623 60.292789 -6.034845 -13.386040 9.515698 0.399395 1.164220 0.222854
-95.192745 64.407359 94.191967 173.669705 -39.354468 -2.816920 2.020194 21.804954 1.370890 0.238199 2.998625 0.278843 0.427352 4.886791 0.475441 1.921856 18.525467 2.073240 -2.328508 17.215589 -0.554683 -4.129630 -3.812766 -0.235703 -5.341310 -0.095672 -3.009499 -2.929808 -1.470629 3.471127 -151.129012 -83.691668 162.791703 0.158946 -2.539012 -2.144024 -5.319928 2.228581 -0.254109 11.529399 -9.407662 3.048284 -167.512382 -58.973868 160.085442 -4.308952 -31.484791 24.662391 -4.505116 -41.781389 3.507322 -139.996430 87.744527 -135.988486 -1.638910 -9.203351 -2.731966 0.048906 -0.218880 0.018458 -0.679722 -38.411856 4.777701 70.780490 83.643858 60.264843 -6.031463 -13.391449 9.518809 0.400319 1.166320 0.221993
-95.192371 64.404471 94.193651 173.679663 -39.334867 -2.817335 2.019613 21.789947 1.372183 0.265812 3.008492 0.292380 0.412039 4.879767 0.471328 1.944881 18.525329 2.086403 -2.532442 17.266500 -0.588244 -4.477499 -3.712987 -0.228884 -5.352561 -0.030503 -3.022866 -2.947442 -1.446569 3.519230 -150.991108 -83.673547 162.594931 0.155849 -2.531984 -2.193536 -5.310545 2.239033 -0.253298 11.547210 -9.533173 3.025495 -167.242056 -58.035667 159.962810 -4.352377 -31.695772 24.993432 -4.531144 -41.803082 3.510762 -140.087480 87.740371 -136.087215 -1.634293 -9.202849 -2.739244 0.046998 -0.221307 0.018656 -0.665868 -38.427439 4.769061 70.701944 83.646734 60.189713 -6.039455 -13.404131 9.519443 0.400215 1.179084 0.229061
-95.192014 64.402952 94.193491 173.686346 -39.325663 -2.815538 2.022548 21.784591 1.373573 0.278754 3.012757 0.294918 0.414566 4.879265 0.476547 1.936957 18.521591 2.085688 -2.710629 17.331393 -0.624716 -4.833090 -3.599650 -0.232442 -5.353681 0.000572 -3.028075 -2.936672 -1.392987 3.560931 -150.841758 -83.667299 162.384002 0.156267 -2.524535 -2.244751 -5.314807 2.239191 -0.252409 11.570457 -9.652188 3.023059 -167.008810 -57.157912 159.879726 -4.420693 -31.888475 25.332949 -4.543995 -41.812753 3.509636 -140.171775 87.736985 -136.174854 -1.633898 -9.208640 -2.746806 0.048155 -0.219638 0.021268 -0.663315 -38.434424 4.763381 70.676401 83.645719 60.159724 -6.037580 -13.407306 9.522333 0.390770 1.179395 0.227599
